Format                                   : Matroska
Format version                           : Version 2
File size                                : 1.36 GiB
Duration                                 : 2h 13mn
Overall bit rate                         : 1 466 Kbps
Movie name                               : Ek Tha Tiger.2012.720p.DVDRip.6Ch.By K@rtik [EXD ExclusivE]

Codec ID                                 : V_MPEG4/ISO/AVC
Duration                                 : 2h 13mn
Bit rate                                 : 1 209 Kbps
Width                                    : 1 280 pixels
Height                                   : 566 pixels
Display aspect ratio                     : 2.25:1
Frame rate                               : 23.976 fps
Color space                              : YUV
Chroma subsampling                       : 4:2:0
Bit depth                                : 8 bits
Scan type                                : Progressive
Bits/(Pixel*Frame)                       : 0.070
Stream size                              : 1.10 GiB (81%)
Title                                    : K@rtik

Codec ID                                 : A_AC3
Duration                                 : 2h 13mn
Bit rate mode                            : Constant
Bit rate                                 : 256 Kbps
Channel(s)                               : 6 channels
Channel positions                        : Front: L C R, Side: L R, LFE
Sampling rate                            : 48.0 KHz
Bit depth                                : 16 bits
Compression mode                         : Lossy
Stream size                              : 244 MiB (17%)
Title                                    : K@rtik
Language                                 : Hindi
 
http://imageshack.us/a/img4/4953/88787095.png 
http://imageshack.us/a/img812/8042/28516744.png 
http://imageshack.us/a/img189/8384/50424910.png 
http://imageshack.us/a/img213/323/52599162.png 
http://imageshack.us/a/img217/3122/42812467.png 
http://imageshack.us/a/img577/3026/91623762.png 
http://imageshack.us/a/img717/9274/23904293.png 
http://imageshack.us/a/img21/2109/14391356.png 
http://imageshack.us/a/img827/4197/44185376.png 
http://imageshack.us/a/img525/7918/44456103.png 
http://imageshack.us/a/img853/7426/59709372.png 
http://imageshack.us/a/img600/9599/93939595.png 
http://imageshack.us/a/img88/9743/33957300.png



